<svg width="76" height="65" viewBox="0 0 76 65" fill="none" xmlns="http://www.w3.org/2000/svg">
<path d="M46.7706 58.847C55.0508 52.7227 67 43.1347 71.9795 35.4665C75.7053 29.7377 76.9176 22.6402 75.297 16.0411C71.8346 1.0088 52.6609 -5.13374 40.7178 4.93997C40.046 5.50279 39.4269 6.12672 38.7913 6.76739C38.532 7.02886 38.2697 7.29308 38 7.55709C37.7303 7.29308 37.468 7.02882 37.2087 6.76735C36.5731 6.12672 35.954 5.50279 35.2823 4.93997C23.3391 -5.13374 4.1655 1.0088 0.702992 16.0411C-0.917597 22.6402 0.294566 29.7377 4.02058 35.4665C9 43.1347 20.9492 52.7227 29.2295 58.847C31.5367 60.5539 38 65 38 65C38 65 44.4634 60.5539 46.7706 58.847Z" fill="#DF3B3A"/>
<path d="M35.44 46V25.4H35.36L30.4 27.76L29.4 23.2L36.32 20H41.32V46H35.44Z" fill="white"/>
</svg>
