<svg width="76" height="65" viewBox="0 0 76 65" fill="none" xmlns="http://www.w3.org/2000/svg">
<path d="M46.7706 58.847C55.0508 52.7227 67 43.1347 71.9795 35.4665C75.7053 29.7377 76.9176 22.6402 75.297 16.0411C71.8346 1.0088 52.6609 -5.13374 40.7178 4.93997C40.046 5.50279 39.4269 6.12672 38.7913 6.76739C38.532 7.02886 38.2697 7.29308 38 7.55709C37.7303 7.29308 37.468 7.02882 37.2087 6.76735C36.5731 6.12672 35.954 5.50279 35.2823 4.93997C23.3391 -5.13374 4.1655 1.0088 0.702992 16.0411C-0.917597 22.6402 0.294566 29.7377 4.02058 35.4665C9 43.1347 20.9492 52.7227 29.2295 58.847C31.5367 60.5539 38 65 38 65C38 65 44.4634 60.5539 46.7706 58.847Z" fill="#DF3B3A"/>
<path d="M27.52 44.64L28.76 40.04C29.84 40.64 32.32 41.64 34.8 41.64C37.96 41.64 39.56 40.12 39.56 38.2C39.56 35.6 37 34.44 34.32 34.44H31.84V30.08H34.24C36.28 30.08 38.84 29.28 38.84 27.08C38.84 25.52 37.6 24.36 35 24.36C32.88 24.36 30.64 25.28 29.6 25.92L28.36 21.52C29.92 20.52 33 19.56 36.4 19.56C41.92 19.56 45 22.48 45 26.04C45 28.8 43.44 31 40.24 32.08V32.16C43.36 32.72 45.88 35.08 45.88 38.52C45.88 43.08 41.84 46.44 35.24 46.44C31.88 46.44 29.04 45.56 27.52 44.64Z" fill="white"/>
</svg>
