<svg width="511" height="50" viewBox="0 0 511 50" fill="none" xmlns="http://www.w3.org/2000/svg">
<path fill-rule="evenodd" clip-rule="evenodd" d="M6.82101 0.00579582C8.70669 0.00595677 10.5924 0.00676151 12.4781 0.00499104C12.7338 0.00472279 12.9202 0.0160431 12.9801 0.358763C13.2289 1.78313 13.5121 3.20182 13.7911 4.62088C14.1176 6.28088 14.4549 7.9389 14.7838 9.59842C15.0505 10.944 15.3186 12.2893 15.5736 13.6371C15.8164 14.9203 16.0379 16.2074 16.2781 17.491C16.5068 18.7133 16.7493 19.9332 16.9824 21.1546C17.2298 22.4516 17.4729 23.7493 17.7194 25.0465C17.7392 25.1504 17.7449 25.2693 17.8016 25.3512C17.8959 25.4872 18.0261 25.5985 18.1412 25.7204C18.249 25.5847 18.4236 25.4617 18.4535 25.3108C18.6125 24.506 18.7273 23.6928 18.8724 22.8852C19.1278 21.4648 19.3963 20.0469 19.6547 18.6271C19.8247 17.6936 19.9764 16.7566 20.1553 15.8247C20.3217 14.9581 20.5259 14.0986 20.6902 13.2315C20.8553 12.361 20.9885 11.4845 21.1417 10.6115C21.3136 9.6334 21.4898 8.65605 21.6686 7.67913C21.9116 6.35224 22.1584 5.02615 22.4044 3.6998C22.6113 2.58468 22.8204 1.47008 23.0261 0.354847C23.0779 0.0739322 23.268 0.00311326 23.5229 0.00397168C24.2585 0.00627865 24.994 0.00273775 25.7296 0.00241584C28.7922 0.00128918 31.8549 -5.20914e-05 34.9176 1.55925e-06C35.6999 1.55925e-06 35.7422 0.0263976 35.5703 0.752237C35.3456 1.70137 35.0585 2.6358 34.8253 3.58322C34.5157 4.84063 34.2411 6.10641 33.9346 7.36463C33.716 8.26177 33.4672 9.15162 33.2371 10.046C33.096 10.5942 32.9694 11.146 32.8282 11.6941C32.6076 12.5505 32.3704 13.4029 32.1583 14.2615C31.8956 15.3252 31.6551 16.3944 31.3975 17.4595C31.2362 18.1265 31.0636 18.791 30.8917 19.4555C30.7049 20.1778 30.51 20.8981 30.3243 21.6207C30.1797 22.1835 30.0399 22.7477 29.9048 23.3129C29.5973 24.5979 29.307 25.8872 28.9859 27.1688C28.5557 28.8853 28.0944 30.5942 27.6638 32.3107C27.4743 33.0659 27.3445 33.836 27.1565 34.5918C26.9373 35.4725 26.6722 36.3418 26.4487 37.2215C26.1923 38.231 25.9646 39.2477 25.7153 40.259C25.4872 41.1842 25.2448 42.1059 25.0125 43.0301C24.8325 43.7464 24.6656 44.4659 24.4792 45.1806C24.3005 45.8649 24.0895 46.5411 23.9196 47.2273C23.7455 47.9307 23.5866 48.639 23.4533 49.3511C23.3423 49.9442 23.3129 49.9945 22.7232 49.9946C19.7006 49.9955 16.678 49.9924 13.6555 50C13.3558 50.0007 13.1704 49.9623 13.087 49.6144C12.7788 48.3284 12.4366 47.0504 12.1013 45.771C11.9179 45.0713 11.7119 44.3773 11.5353 43.6761C11.3101 42.7812 11.1157 41.8786 10.8877 40.9844C10.5719 39.7451 10.2285 38.5129 9.91397 37.2733C9.73647 36.5735 9.60621 35.862 9.43077 35.1617C9.25521 34.4608 9.04107 33.7695 8.85979 33.07C8.58136 31.9954 8.31375 30.9181 8.04663 29.8407C7.77919 28.7616 7.51743 27.6812 7.25394 26.6013C7.08823 25.9222 6.93433 25.2401 6.75672 24.5641C6.43878 23.3541 6.09996 22.1493 5.78392 20.9387C5.61351 20.286 5.4812 19.6237 5.31593 18.9696C5.07435 18.0132 4.81519 17.0611 4.56993 16.1056C4.34026 15.2107 4.12028 14.3135 3.89375 13.4178C3.6249 12.355 3.34799 11.2941 3.08541 10.2297C2.91792 9.55073 2.78166 8.864 2.61054 8.18602C2.39819 7.3452 2.15245 6.5126 1.94269 5.67114C1.67087 4.58091 1.42967 3.48306 1.15693 2.39304C1.00031 1.76731 0.814207 1.14855 0.628263 0.530499C0.518353 0.165085 0.577069 0.0380935 0.965246 0.0300459C1.96743 0.00955135 2.97004 0.00976596 3.97249 0.00627866C4.92185 0.00300598 5.87143 0.00552757 6.82101 0.00579582Z" fill="white"/>
<path fill-rule="evenodd" clip-rule="evenodd" d="M88.2105 42.5106C86.7529 42.5106 85.2955 42.507 83.8379 42.5134C83.5203 42.5149 83.3797 42.358 83.3284 42.0702C83.1172 40.8852 82.895 39.702 82.6925 38.5156C82.6361 38.1851 82.4834 38.0229 82.1381 38.0235C80.5332 38.0264 78.9282 38.0243 77.3232 38.0181C76.9743 38.0169 76.8048 38.1424 76.7423 38.5141C76.5959 39.3861 76.3851 40.2474 76.217 41.1161C76.1568 41.4272 76.1428 41.7471 76.11 42.0632C76.0785 42.3678 75.9613 42.5276 75.6017 42.5267C72.8201 42.5195 70.0384 42.5342 67.2567 42.5355C67.0188 42.5355 66.7809 42.4877 66.543 42.462C66.5704 42.2421 66.5764 42.0169 66.6292 41.803C66.8502 40.9077 67.0783 40.0139 67.317 39.1232C67.5561 38.2311 67.8128 37.3437 68.0582 36.4534C68.3068 35.5515 68.5533 34.649 68.7968 33.7457C69.1133 32.5709 69.4144 31.3918 69.7428 30.2202C70.1918 28.6183 70.6709 27.0246 71.1167 25.4218C71.4249 24.3133 71.6916 23.1936 71.9905 22.0826C72.24 21.155 72.5162 20.2344 72.7682 19.3073C73.0524 18.2621 73.3187 17.2119 73.6005 16.166C73.8692 15.1694 74.1503 14.1762 74.4212 13.1801C74.6356 12.3926 74.8398 11.6022 75.0542 10.8146C75.2726 10.0134 75.5015 9.21515 75.7184 8.41361C75.7961 8.12631 76.013 8.1071 76.2509 8.1071C77.3075 8.10689 78.3641 8.1071 79.4208 8.10485C80.5845 8.10238 81.7488 8.11746 82.9113 8.08318C83.3491 8.07019 83.579 8.21682 83.6892 8.62494C83.8992 9.40287 84.1297 10.1752 84.3449 10.9518C84.6127 11.9179 84.8769 12.885 85.1366 13.8531C85.4343 14.9625 85.7187 16.0756 86.0216 17.1836C86.3323 18.3195 86.6648 19.4497 86.9765 20.5855C87.2906 21.7311 87.5794 22.8837 87.9008 24.0273C88.1899 25.056 88.5198 26.0734 88.8102 27.1017C89.062 27.9933 89.274 28.8959 89.521 29.789C89.823 30.8817 90.1532 31.9669 90.4526 33.0604C90.8369 34.4633 91.1972 35.8726 91.5782 37.2763C91.8094 38.1281 92.0645 38.9735 92.3014 39.8239C92.5205 40.6105 92.7391 41.3976 92.9385 42.1893C93.0215 42.5189 92.7652 42.5165 92.5425 42.5166C91.0983 42.5174 89.6544 42.517 88.2104 42.517C88.2105 42.5149 88.2105 42.5127 88.2105 42.5106ZM79.6103 29.907C79.611 29.8929 79.6117 29.8789 79.6123 29.8647C79.8393 29.8647 80.0663 29.8671 80.2933 29.8643C80.8202 29.8579 80.9074 29.7198 80.7837 29.2064C80.5921 28.4119 80.4066 27.615 80.2559 26.8122C80.0832 25.892 79.9593 24.9627 79.7922 24.0413C79.7701 23.92 79.6175 23.8219 79.5255 23.7132C79.4387 23.8131 79.3009 23.901 79.2733 24.0151C79.1122 24.6808 78.9591 25.3496 78.8369 26.0233C78.6297 27.1669 78.4514 28.3156 78.2508 29.4604C78.2125 29.6784 78.2672 29.7926 78.4949 29.8114C78.8668 29.8421 79.2385 29.875 79.6103 29.907Z" fill="white"/>
<path fill-rule="evenodd" clip-rule="evenodd" d="M49.8409 8.10453C51.2185 8.10453 52.596 8.10254 53.9735 8.10555C54.5305 8.10678 54.6281 8.21971 54.7352 8.76019C54.9142 9.66377 55.1295 10.5603 55.32 11.4618C55.5194 12.4059 55.7031 13.3531 55.9018 14.2974C56.191 15.6716 56.4943 17.043 56.7784 18.4183C56.9998 19.4897 57.1919 20.5671 57.4135 21.6385C57.6705 22.8807 57.9402 24.1204 58.2205 25.3574C58.25 25.4873 58.3885 25.5928 58.4763 25.7096C58.5728 25.5852 58.7265 25.4729 58.7566 25.3343C58.9328 24.5215 59.0718 23.701 59.2394 22.8864C59.4068 22.0726 59.5997 21.2642 59.7688 20.4508C59.9757 19.4561 60.1659 18.4579 60.37 17.4625C60.6649 16.0252 60.972 14.5902 61.2618 13.1517C61.4803 12.067 61.6763 10.9778 61.8892 9.892C61.9781 9.4386 62.09 8.98987 62.1811 8.53711C62.2467 8.21113 62.4175 8.09009 62.7672 8.09267C65.2013 8.11064 67.6354 8.10834 70.0696 8.11021C70.4432 8.11048 70.8171 8.08966 71.1907 8.09508C71.6312 8.10157 71.7244 8.20721 71.6183 8.63256C71.4001 9.50567 71.163 10.3744 70.9271 11.2431C70.616 12.3879 70.2995 13.5313 69.9834 14.6749C69.5817 16.1281 69.1745 17.5797 68.7767 19.034C68.5478 19.8703 68.3379 20.7116 68.11 21.5483C67.8532 22.4909 67.5809 23.4295 67.3245 24.3724C67.0957 25.2143 66.8856 26.0612 66.656 26.9029C66.4333 27.7192 66.1902 28.5301 65.9669 29.3462C65.5764 30.7734 65.2011 32.2047 64.8065 33.6306C64.4932 34.7635 64.1516 35.8886 63.8392 37.0218C63.6044 37.8731 63.3995 38.7323 63.1749 39.5865C62.9531 40.4303 62.7139 41.2697 62.5023 42.1159C62.4269 42.4171 62.2556 42.5321 61.9622 42.531C60.024 42.523 58.0857 42.5164 56.1474 42.5122C55.76 42.5113 55.3706 42.5011 54.9857 42.5348C54.6191 42.567 54.4313 42.4053 54.3486 42.0788C54.0465 40.8861 53.7614 39.6891 53.4418 38.5012C53.1029 37.2417 52.7233 35.9929 52.3773 34.7352C52.0334 33.4846 51.7201 32.2258 51.3722 30.9763C51.1401 30.1431 50.8556 29.3242 50.6222 28.4913C50.3342 27.4629 50.0745 26.4269 49.8034 25.3939C49.5518 24.4347 49.301 23.4753 49.0499 22.5159C48.8738 21.8428 48.7085 21.1668 48.5195 20.4972C48.2402 19.5071 47.9283 18.526 47.6594 17.5333C47.2519 16.0293 46.8832 14.5149 46.4722 13.0118C46.1071 11.6774 45.7055 10.3528 45.3238 9.02281C45.2801 8.87071 45.258 8.71249 45.2293 8.55648C45.1711 8.23983 45.272 8.096 45.63 8.09986C47.0336 8.11526 48.4373 8.10614 49.841 8.10614C49.8409 8.1056 49.8409 8.10506 49.8409 8.10453Z" fill="white"/>
<path fill-rule="evenodd" clip-rule="evenodd" d="M34.9496 25.3229C34.9496 20.0338 34.95 14.7448 34.9488 9.45572C34.9487 9.17759 34.942 8.89904 34.9274 8.62129C34.9097 8.28114 35.0314 8.09739 35.408 8.10656C35.9684 8.12024 36.5295 8.10769 37.0903 8.10731C39.3632 8.10576 41.6361 8.10506 43.909 8.10286C44.3191 8.10243 44.4357 8.2114 44.4365 8.66474C44.4397 10.4675 44.4345 12.2701 44.4339 14.0727C44.4316 22.7156 44.4293 31.3583 44.428 40.0012C44.4279 40.6638 44.4402 41.3265 44.4359 41.9891C44.4331 42.4119 44.2962 42.5339 43.8848 42.5335C41.1451 42.531 38.4053 42.5285 35.6656 42.5301C34.9732 42.5304 34.937 42.5065 34.9369 41.8265C34.9356 36.3252 34.9362 30.8241 34.9362 25.3229C34.9407 25.3229 34.9451 25.3229 34.9496 25.3229Z" fill="white"/>
<path fill-rule="evenodd" clip-rule="evenodd" d="M101.241 5.80108C102.819 5.80108 104.397 5.80221 105.974 5.80023C106.361 5.79974 106.484 5.92877 106.469 6.2921C106.364 8.76791 106.274 11.2443 106.162 13.7198C106.067 15.7974 105.938 17.8736 105.845 19.9513C105.791 21.1688 105.789 22.3885 105.743 23.6066C105.677 25.3786 105.586 27.1498 105.519 28.9219C105.505 29.296 105.339 29.4438 104.976 29.4426C103.772 29.4385 102.569 29.4452 101.365 29.4441C100.068 29.4429 98.7712 29.4275 97.4741 29.4403C97.0726 29.4442 96.9155 29.2691 96.9059 28.8991C96.8827 27.9983 96.8608 27.0973 96.8293 26.1968C96.7717 24.5548 96.7216 22.9124 96.6427 21.2713C96.5466 19.2746 96.4121 17.2795 96.3173 15.2826C96.2595 14.0654 96.261 12.8454 96.2069 11.6279C96.1318 9.93637 96.0366 8.24551 95.9352 6.5552C95.8968 5.91616 95.9664 5.81766 96.627 5.81643C98.165 5.81337 99.7028 5.81552 101.241 5.81552C101.241 5.81069 101.241 5.80586 101.241 5.80108Z" fill="white"/>
<path fill-rule="evenodd" clip-rule="evenodd" d="M107.403 37.1488C107.583 40.4545 104.645 42.88 101.83 42.9897C98.2511 43.1292 95.5312 40.2921 95.5898 37.0324C95.6475 33.8291 98.2595 31.1797 101.713 31.2238C104.663 31.2616 107.682 33.9319 107.403 37.1488Z" fill="white"/>
<path d="M167.421 46.3056H158.436C157.375 45.2324 156.439 44.1593 155.129 42.7704C152.009 45.4849 148.078 47 143.273 47C134.038 47 129.421 41.1291 129.421 34.9426C129.421 29.2611 132.728 25.2209 137.533 22.6327V22.4433C135.536 20.0445 134.163 16.9512 134.163 13.9211C134.163 8.61837 138.157 3 145.894 3C151.822 3 156.377 6.72453 156.377 12.5323C156.377 16.9512 153.818 20.5495 147.703 23.7059L147.641 23.8953C150.574 27.3042 153.818 31.0918 156.127 33.6169C157.936 30.8393 159.247 26.7991 159.933 22.3171H166.797C165.674 28.8824 163.739 34.3113 160.245 38.2884C162.616 40.9397 164.863 43.528 167.421 46.3056ZM144.459 41.2554C147.454 41.2554 149.887 39.9928 151.51 38.3515C148.951 35.7001 144.958 31.155 140.964 26.5466C139.03 27.9354 136.721 30.1449 136.721 33.7432C136.721 37.9096 139.779 41.2554 144.459 41.2554ZM145.519 7.98709C142.649 7.98709 141.089 10.4491 141.089 13.1636C141.089 15.7518 142.275 17.835 144.147 19.9813C147.703 17.7088 149.762 15.7518 149.762 12.7848C149.762 10.5122 148.452 7.98709 145.519 7.98709Z" fill="white"/>
<g clip-path="url(#clip0_79_577)">
<path d="M506.369 8.21521C504.477 8.21521 502.916 6.50773 502.916 4.48883C502.916 2.46993 504.487 0.773196 506.369 0.773196C508.25 0.773196 509.791 2.48067 509.791 4.48883C509.791 6.49699 508.26 8.21521 506.369 8.21521ZM506.369 8.82732C508.61 8.82732 510.421 6.89433 510.421 4.48883C510.421 2.08333 508.61 0.171822 506.369 0.171822C504.127 0.171822 502.286 2.10481 502.286 4.48883C502.286 6.87285 504.117 8.82732 506.369 8.82732ZM505.458 4.55327H505.718L506.259 5.18686L507.069 6.21778C507.209 6.41108 507.349 6.60438 507.499 6.81916C507.619 6.80842 507.76 6.78694 507.89 6.78694C508.02 6.78694 508.14 6.80842 508.28 6.81916L508.15 6.64734L507.83 6.27148L506.419 4.48883C507.109 4.3707 507.82 3.98411 507.82 3.20017C507.82 2.51289 507.359 2.16924 506.309 2.16924H504.868V6.81916C504.958 6.80842 505.058 6.78694 505.168 6.78694C505.258 6.78694 505.358 6.80842 505.468 6.81916V4.55327H505.458ZM505.458 2.53436H506.449C506.969 2.55584 507.219 2.81357 507.219 3.28608C507.219 3.81229 506.829 4.18814 506.199 4.18814H505.458V2.53436Z" fill="white"/>
<path d="M197.916 5.64862C197.916 5.24055 197.876 3.81228 198.177 3.5116C198.527 3.15722 200.158 3.25387 200.718 3.25387C204.561 3.25387 206.622 5.48754 206.622 10.0193C206.622 12.457 206.232 14.6478 204.42 16.0223C202.739 17.1929 201.188 17.0962 199.287 17.0962H197.906V5.64862H197.916ZM197.916 18.4708H199.257C201.459 18.4708 204 18.3204 205.981 19.5447C208.223 20.9729 209.083 23.4107 209.083 26.3101C209.083 31.1426 207.182 34.0958 202.96 34.0958C201.319 34.0958 199.167 34.1495 198.427 31.9588C197.906 30.4338 197.906 27.2766 197.906 25.5477V18.4708H197.916ZM193.394 25.7947C193.394 27.427 193.474 31.1856 193.083 32.5601C192.613 34.3428 190.802 34.2891 189.421 34.2891V35.4596C191.833 35.4059 194.294 35.5026 196.706 35.4596C198.607 35.5133 200.458 35.4167 202.349 35.4596C204.851 35.4596 207.953 35.5563 210.284 34.1387C212.696 32.6138 214.467 30.1224 214.467 26.7612C214.467 23.808 213.176 21.3703 211.145 19.738C209.464 18.3634 207.262 17.9124 204.851 17.6546V17.5472C208.123 16.3767 211.315 14.39 211.315 9.7616C211.315 2.99613 205.231 1.78265 200.708 1.77191C198.957 1.77191 197.306 1.77191 195.575 1.77191C193.464 1.78265 191.512 1.76117 189.411 1.77191V2.94244C190.792 2.94244 192.603 2.88874 193.073 4.67139C193.464 6.04596 193.384 9.81529 193.384 11.4369V25.7839L193.394 25.7947Z" fill="white"/>
<path d="M242.975 5.10094C242.975 4.54252 242.885 3.57603 243.445 3.2646C243.835 3.06056 245.727 3.21091 246.247 3.21091C250.129 3.21091 252.281 6.36812 252.281 10.8462C252.281 18.2238 248.358 18.3849 242.965 18.3849V5.10094H242.975ZM249.439 18.9003C253.711 18.4386 257.244 15.6465 257.244 10.1482C257.244 3.0713 252.281 1.75043 247.368 1.75043C246.707 1.75043 235.63 1.75043 234.479 1.75043V2.92096C235.86 2.92096 237.671 2.86727 238.142 4.64991C238.532 6.02448 238.432 9.79381 238.432 11.4154V25.7732C238.432 27.4055 238.532 31.1641 238.142 32.5387C237.671 34.2676 235.86 34.2676 234.479 34.2676V35.4381C236.551 35.4381 238.852 35.4596 240.944 35.4489C243.015 35.4489 245.026 35.4274 247.027 35.4381V34.2676C245.646 34.2676 243.875 34.3213 243.365 32.5387C242.975 31.1641 242.975 27.3948 242.975 25.7732V19.7702C245.256 19.7702 245.086 20.0709 246.507 22.0146L253.661 32.4957L255.693 35.4489C256.723 35.4489 257.844 35.4489 258.925 35.4596C260.115 35.4704 261.656 35.4381 262.807 35.4489V34.2783C260.606 33.8703 259.965 33.1615 258.585 31.2715L249.439 18.9003Z" fill="white"/>
<path d="M295.918 1.42826C303.272 1.42826 305.864 10.1267 305.864 18.0412C305.864 25.9558 303.603 34.7079 296.168 34.7079C288.733 34.7079 285.972 26.482 285.972 18.2023C285.972 10.3952 288.693 1.439 295.918 1.439M295.918 36.1362C304.363 36.1362 311.097 28.6512 311.097 17.8372C311.097 7.0232 304.073 0 296.078 0C288.083 0 280.738 7.69974 280.738 18.1916C280.738 28.6834 287.763 36.1147 295.918 36.1147" fill="white"/>
<path d="M356.565 1.93299H357.626V11.8771H356.565C355.834 6.27148 352.512 2.34106 347.559 2.34106C339.925 2.34106 337.623 11.2758 337.623 18.8466C337.623 26.4175 340.095 34.6005 347.649 34.6005C353.623 34.6005 355.794 29.5533 357.075 23.4966H357.846V34.5576H357.295L356.275 31.9802C353.413 34.6542 350.511 35.771 346.849 35.771C338.183 35.771 332.3 29.1559 332.3 18.8574C332.3 8.55885 338.574 1.19201 347.229 1.19201C350.731 1.19201 352.943 2.14776 355.895 4.31701L356.575 1.94373L356.565 1.93299Z" fill="white"/>
<path d="M387.595 21.4669L392.498 7.08763L397.121 21.4669H387.595ZM387.034 23.0992H397.681L399.362 28.3505C399.752 29.521 400.222 31.0567 400.222 32.3239C400.222 34.3106 398.111 34.2139 396.9 34.2676V35.4381C396.9 35.4381 409.248 35.4381 409.278 35.4381V34.2676C407.807 34.0636 406.516 33.8595 405.566 32.3776C404.795 31.207 403.845 28.0928 403.324 26.7719L394.619 0.859108H393.088C393.088 0.859108 382.712 31.3359 382.581 31.6366C381.801 33.3655 380.82 33.9991 378.829 34.2676V35.4381C380.27 35.4381 386.474 35.4381 388.055 35.4381V34.2676C386.764 34.1173 384.563 34.2676 384.563 32.0769C384.563 30.0902 385.984 26.3101 386.634 24.3771L387.024 23.0992H387.034Z" fill="white"/>
<path d="M480.242 5.06873C480.242 4.66066 480.242 3.80155 480.502 3.49012C480.893 3.02835 482.574 3.13574 483.094 3.13574C492.32 3.13574 494.781 10.0515 494.781 20.1138C494.781 27.631 493.31 34.0421 485.766 34.0421C484.125 34.0421 481.933 33.8381 480.933 32.1091C480.072 30.6379 480.242 28.2002 480.242 26.4712V5.06873ZM475.809 25.7517C475.809 27.3733 475.809 31.1426 475.419 32.5064C474.949 34.2354 473.128 34.2354 471.757 34.2354V35.4059C471.757 35.4059 482.754 35.4489 485.295 35.4059C494.181 35.2556 500.175 30.0687 500.175 19.2977C500.175 8.52663 493.28 1.84708 484.175 1.76117C482.193 1.73969 473.708 1.73969 471.757 1.76117V3.02835C473.138 3.02835 474.949 2.97466 475.419 4.75731C475.809 6.13188 475.809 9.89047 475.809 11.5228V25.7517Z" fill="white"/>
<path d="M191.852 46.4347H193.824C194.624 46.4347 195.245 46.5958 195.245 47.0898C195.245 47.616 194.654 47.7985 193.784 47.7985H191.852V46.4347ZM191.852 48.2496H194.114C195.675 48.2496 196.245 47.6375 196.245 47.0898C196.245 46.4562 195.445 45.9837 194.114 45.9837H190.882V49.9033H191.852V48.2496Z" fill="white"/>
<path d="M244.406 48.2925L245.556 46.5636H245.576L246.637 48.2925H244.406ZM246.987 48.765L247.698 49.9033H248.758L246.157 45.9837H245.056L242.354 49.9033H243.355L244.106 48.765H246.987Z" fill="white"/>
<path d="M294.186 46.4347H296.608C297.088 46.4347 297.899 46.4884 297.899 47.0898C297.899 47.6911 297.148 47.7663 296.438 47.7663H294.186V46.4347ZM294.186 48.2281H296.538C297.699 48.2281 297.819 48.604 297.819 48.9261C297.819 49.0765 297.849 49.6671 297.989 49.9141H299.18V49.8282C298.879 49.7315 298.829 49.6564 298.819 49.4308L298.759 48.7221C298.719 48.1744 298.309 48.0777 297.899 47.9811C298.359 47.8308 298.899 47.616 298.899 47.0468C298.899 46.2199 297.719 45.9944 296.538 45.9944H293.216V49.9141H294.186V48.2388V48.2281Z" fill="white"/>
<path d="M345.939 49.9033H344.979V45.9837H349.952V46.4562H345.939V47.6482H349.471V48.1207H345.939V49.9033Z" fill="white"/>
<path d="M398.942 45.9837V48.5288C398.942 49.3342 398.021 50.0107 396.05 50.0107C394.079 50.0107 393.288 49.3342 393.288 48.6039V45.9944H394.259V48.4643C394.259 49.3127 395.209 49.549 396.08 49.549C396.95 49.549 397.971 49.3234 397.971 48.4751V46.0052H398.942V45.9837Z" fill="white"/>
<path d="M447.762 49.9034V47.5945C447.762 47.4764 447.782 46.9824 447.782 46.6173H447.762L445.741 49.9034H444.78L442.759 46.6173H442.739C442.739 46.9824 442.759 47.4764 442.759 47.5838V49.8926H441.818V45.9729H443.209L445.26 49.2805H445.281L447.322 45.9729H448.703V49.8926H447.762V49.9034Z" fill="white"/>
<path d="M497.944 47.1327C497.894 46.5314 496.973 46.3381 496.163 46.3381C495.542 46.3381 494.522 46.4347 494.522 47.0253C494.522 47.3582 494.952 47.4656 495.372 47.5301L497.423 47.7771C498.354 47.8952 499.054 48.2066 499.054 48.8295C499.054 49.7637 497.473 50.0107 496.243 50.0107C494.912 50.0107 494.391 49.796 494.071 49.6349C493.461 49.3342 493.341 49.0013 493.341 48.6362H494.251C494.251 49.3449 495.312 49.549 496.233 49.549C496.933 49.549 498.114 49.4523 498.114 48.8939C498.114 48.4858 497.764 48.357 496.583 48.1959L495.112 48.0133C494.642 47.9489 493.581 47.7663 493.581 47.0898C493.581 46.4777 494.311 45.8763 496.053 45.8763C498.564 45.8763 498.814 46.6924 498.854 47.122H497.944V47.1327Z" fill="white"/>
<path d="M500.205 40.4961H189.441V41.1512H500.205V40.4961Z" fill="white"/>
<path d="M435.565 5.13316C435.565 4.57474 435.475 3.60825 436.035 3.29682C436.425 3.09278 438.326 3.24313 438.837 3.24313C442.719 3.24313 444.87 6.40034 444.87 10.8784C444.87 18.256 440.948 18.4171 435.555 18.4171V5.13316H435.565ZM442.029 18.9326C446.301 18.4708 449.834 15.668 449.834 10.1804C449.834 3.10352 444.87 1.78265 439.957 1.78265C438.146 1.83634 436.255 1.80412 434.484 1.81486C432.002 1.83634 429.461 1.81486 427.069 1.78265V2.95318C428.45 2.95318 430.261 2.89948 430.732 4.68213C431.122 6.0567 431.022 9.82603 431.022 11.4583V25.8162C431.022 27.4485 431.122 31.207 430.732 32.5924C430.261 34.3213 428.45 34.3213 427.069 34.3213V35.4918C429.141 35.4918 431.442 35.5133 433.533 35.5026C435.605 35.5026 437.616 35.4811 439.617 35.4918V34.3213C438.236 34.3213 436.465 34.375 435.955 32.5924C435.565 31.2178 435.565 27.4485 435.565 25.8162V19.8131C437.846 19.8131 437.676 20.1138 439.097 22.0576L446.251 32.5494L448.283 35.5026C449.313 35.5026 450.434 35.5026 451.515 35.5133C452.705 35.5241 454.246 35.4918 455.397 35.5026V34.332C453.196 33.924 452.545 33.2152 451.164 31.3252L442.029 18.954V18.9326Z" fill="white"/>
</g>
<defs>
<clipPath id="clip0_79_577">
<rect width="321" height="50" fill="white" transform="translate(189.421)"/>
</clipPath>
</defs>
</svg>
